<svg fill="#fff" xmlns="http://www.w3.org/2000/svg"  viewBox="0 0 24 24" width="48px" height="48px"><path d="M 12 2 C 6.4889941 2 2 6.4889982 2 12 C 2 17.511002 6.4889941 22 12 22 C 17.511006 22 22 17.511002 22 12 C 22 6.4889982 17.511006 2 12 2 z M 12 4 C 16.430126 4 20 7.5698765 20 12 C 20 16.430123 16.430126 20 12 20 C 7.5698737 20 4 16.430123 4 12 C 4 7.5698765 7.5698737 4 12 4 z M 6.4453125 8.5 C 6.0643125 8.5 6 8.6867187 6 8.8867188 C 6 9.2477188 6.2995 11.1965 7.9375 13.4375 C 9.1245 15.0635 10.689219 16 12.074219 16 C 12.913219 16 13 15.786125 13 15.453125 L 13 13.966797 C 13 13.565797 13.092375 13.5 13.359375 13.5 C 13.550375 13.5 13.9375 13.625 14.6875 14.5 C 15.5525 15.509 15.709078 16 16.205078 16 L 17.515625 16 C 17.819625 16 17.994953 15.873 18.001953 15.625 C 18.002953 15.562 17.993656 15.490109 17.972656 15.412109 C 17.875656 15.124109 17.431953 14.421 16.876953 13.75 C 16.568953 13.378 16.265953 13.009547 16.126953 12.810547 C 16.031953 12.679547 15.996 12.588 16 12.5 C 16.004 12.408 16.052 12.318312 16.125 12.195312 C 16.112 12.195312 17.80375 9.8214844 17.96875 9.0214844 C 17.99175 8.9454844 18.003 8.8745 18 8.8125 C 17.992 8.6315 17.867219 8.5 17.574219 8.5 L 16.265625 8.5 C 15.935625 8.5 15.782359 8.6993906 15.693359 8.9003906 C 15.693359 8.9003906 14.8785 10.5795 13.9375 11.6875 C 13.6325 12.0075 13.4775 12 13.3125 12 C 13.2245 12 13 11.893609 13 11.599609 L 13 9.0078125 C 13 8.6608125 12.914766 8.5 12.634766 8.5 L 10.310547 8.5 C 10.106547 8.5 10 8.6593125 10 8.8203125 C 10 9.1533125 10.449 9.2349219 10.5 10.169922 L 10.5 11.980469 C 10.5 12.420469 10.424766 12.5 10.259766 12.5 C 9.8147656 12.5 8.9385625 10.999203 8.3515625 9.0332031 C 8.2245625 8.6462031 8.0975781 8.5 7.7675781 8.5 L 6.4453125 8.5 z"/></svg>