<?xml version="1.0" encoding="iso-8859-1"?>
<!-- Generator: Adobe Illustrator 19.0.0, SVG Export Plug-In . SVG Version: 6.00 Build 0)  -->
<svg version="1.1" id="Capa_1" xmlns="http://www.w3.org/2000/svg" xmlns:xlink="http://www.w3.org/1999/xlink" x="0px" y="0px"
	 viewBox="0 0 512 512" style="enable-background:new 0 0 512 512;" xml:space="preserve" stroke="#333" stroke-width="5px" fill="none">
<path d="M308.3,325.5c17.3-5.4,31.9-13.8,43.4-28.5c-62.9,36.3-125,35.2-187,0.7c1.5,3.9,8.5,11.1,17.7,16.6   c7.1,4.2,14.8,7.6,22.4,11.4c-0.7,0.9-1.7,2.3-2.8,3.7c-2.6,3.3-5.6,6.3-7.8,9.8c-2.9,4.6-6.5,5.9-12,5.3   c-22.6-2.6-42.5-10.5-58.8-26.8c-5.9-5.8-7.6-12-7.2-20.4c2-38.4,11.1-75.1,25.6-110.5c2-4.9,4.6-9.6,6.6-14.5   c1.4-3.5,3.8-5.8,6.9-7.8c15.2-10.1,31.5-17.4,49.6-20.5c3.7-0.6,7.4-1.1,11.2-1.3c1.4-0.1,2.9,1,4.2,2.1   c-15,5.1-29.5,10.5-43,18.4c-5.4,3.1-10.5,6.8-15.7,10.2c-1.1,0.7-2.1,1.7-3.4,2.8c64.1-30.6,127.9-32.1,191.8-0.8   c-17.1-13.8-36.8-22.4-57.5-29.1c1.5-3.1,3.6-3.8,6.9-3.5c22.4,2.1,42.4,10.3,60.6,23.1c1.7,1.2,3.3,2.9,4.3,4.8   c14.2,28.7,23.7,58.8,29.1,90.3c2.5,14.7,3.8,29.6,4.1,44.5c0,1.9-0.7,4.2-1.9,5.7c-12,15.6-27.9,25.2-46.7,30.1   c-7.2,1.9-14.8,2.5-22.2,3.5c-1.2,0.2-2.9-0.2-3.6-1C318.1,337.7,313.4,331.8,308.3,325.5z M211.9,285.9c5.4,0,10.2-1.7,14.4-5.1   c7-5.7,9.3-13.4,10.4-22.2c2.2-18.5-18.7-32-34.9-24.4c-11.4,5.4-17.4,19.3-13.8,32.3C191.2,278.2,200.7,285.9,211.9,285.9z    M299.8,286.3c2.8-0.7,5.8-1,8.4-2.1c16.3-6.5,21.5-28.3,10.3-42.9c-8.9-11.5-25.5-12.6-35.7-2.2c-6.6,6.7-8.6,14.9-7.6,24.1   C276.8,275.8,287.6,285.9,299.8,286.3z"/>
<path d="M446,0H66C29.607,0,0,29.607,0,66v380c0,36.393,29.607,66,66,66h380c36.393,0,66-29.607,66-66V66C512,29.607,482.393,0,446,0z M492,446c0,25.364-20.636,46-46,46H66c-25.364,0-46-20.636-46-46V66c0-25.364,20.636-46,46-46h380c25.364,0,46,20.636,46,46V446z"/>
</svg>